# xmcd CD database file
#
# Track frame offsets:
#	150
#	21712
#	30192
#	46752
#	70220
#	86697
#	102797
#	122917
#	143722
#	155142
#	169422
#	189260
#	222492
#	239387
#
# Disc length: 3760 seconds
#
# Revision: 3
# Processed by: cddbd v1.5.1PL0 Copyright (c) Steve Scherf et al.
# Submitted via: CDex 1.60beta1
#
DISCID=c40eae0e
DTITLE=Various Artist - We Love butchers indies version
DYEAR=1999
DGENRE=Rock
TTITLE0=MIZU(NAHT)
TTITLE1=CROWS CAW LOUDLY(Hi-STANDARD)
TTITLE2=COWBOY(GOD'S GUTS)
TTITLE3=IN A CAR(NKX-25)
TTITLE4=10月(RAILROAD JERK)
TTITLE5=Thursday Afternoon(VOLUME DEALERS)
TTITLE6=ALLIGATOR(SECOND)
TTITLE7=UNTITLED(BLUEGRASS CONSPIRACY)
TTITLE8=Never Give Up(ロマンポルシェ)
TTITLE9=I HATE YOU(I LOVE YOU)(RUDOLPH SCHMITT)
TTITLE10=LOST IN TIME(大高ジャッキー)
TTITLE11=5月(YOSHIMURA)
TTITLE12=LOST IN TIME(discotortion)
TTITLE13=シチガツ(COWPERS)
EXTD=YEAR: 1999
EXTT0=
EXTT1=
EXTT2=
EXTT3=
EXTT4=
EXTT5=
EXTT6=
EXTT7=
EXTT8=
EXTT9=
EXTT10=
EXTT11=
EXTT12=
EXTT13=
PLAYORDER=
